<svg width="728" height="300" version="1.1" xmlns="http://www.w3.org/2000/svg" desc="Created with imagetracer.js version 1.2.6" ><path fill="rgb(0,0,0)" stroke="rgb(0,0,0)" stroke-width="1" opacity="0" d="M 0 0 L 728 0 L 728 300 L 0 300 L 0 0 Z M 34 71 L 21 88 L 21 91 L 138 179 L 137 181 L 140 182 L 148 195 L 150 204 Q 150 217 144 224 L 145 225 L 235 225 L 231 216 Q 229 199 236 193 L 232 189 L 223 186 L 201 185 L 198 184 L 198 171 L 196 167 L 192 163 L 178 163 L 173 158 L 158 158 L 156 159 L 154 162 L 151 164 L 146 170 Q 145 175 147 177 L 144 176 L 28 89 L 36 78 L 37 72 L 34 71 Z M 382 88 L 366 113 L 366 234 L 321 234 L 321 232 L 325 226 L 329 221 L 320 226 Q 323 217 329 210 L 333 205 L 329 207 Q 319 213 315 225 L 313 226 Q 316 202 330 189 L 329 188 Q 319 195 313 206 Q 314 209 310 207 L 309 194 L 306 185 L 305 185 Q 307 189 306 198 L 307 199 L 307 217 L 304 217 L 300 211 Q 301 208 298 209 Q 303 220 304 234 L 260 234 Q 269 233 275 228 Q 281 223 283 215 L 283 204 L 277 193 Q 272 187 264 185 L 256 185 L 246 189 Q 237 194 235 207 Q 235 217 239 223 Q 245 232 259 234 L 28 234 L 26 236 Q 25 239 28 240 L 492 240 Q 493 240 492 236 L 491 234 L 479 234 L 479 113 L 464 90 Q 465 87 463 88 L 447 112 L 447 144 Q 445 147 440 145 L 438 144 L 438 112 L 424 90 L 421 88 L 406 113 L 406 145 L 406 145 L 398 145 L 398 113 L 383 90 Q 384 87 382 88 Z M 53 152 L 51 154 Q 52 158 50 160 Q 49 178 57 188 Q 67 202 86 206 Q 86 193 93 186 Q 101 175 118 174 L 67 152 L 53 152 Z M 116 178 L 108 180 L 100 185 L 94 192 L 90 204 L 92 217 L 95 222 Q 101 230 113 233 L 124 233 L 136 227 Q 143 222 145 212 Q 147 197 141 191 Q 134 179 116 178 Z " /><path fill="rgb(0,0,0)" stroke="rgb(0,0,0)" stroke-width="1" opacity="0" d="M 399.5 159 Q 405.8 158.3 406 159.5 L 406 197.5 Q 404.8 200.3 399.5 199 L 398 197.5 L 398 160.5 L 399.5 159 Z " /><path fill="rgb(0,0,0)" stroke="rgb(0,0,0)" stroke-width="1" opacity="0" d="M 439.5 159 Q 446.5 157.5 446 160.5 L 447 161.5 L 447 196.5 L 446 199 L 439.5 199 L 438 197.5 L 438 160.5 L 439.5 159 Z " /><path fill="rgb(0,0,0)" stroke="rgb(0,0,0)" stroke-width="1" opacity="0" d="M 114.5 194 L 121.5 194 L 127 197 L 130 203.5 L 130 207.5 Q 128.8 213.3 124.5 216 L 116.5 218 Q 110 216.5 107 211.5 L 106 202.5 L 110.5 196 L 114.5 194 Z " /><path fill="rgb(0,0,0)" stroke="rgb(0,0,0)" stroke-width="1" opacity="0" d="M 255.5 199 Q 265.3 197.3 268 202.5 Q 270.8 205.2 270 211.5 L 265.5 218 Q 262.3 220.3 255.5 219 L 250 214.5 L 249 205.5 L 253.5 200 L 255.5 199 Z " /><path fill="rgb(0,0,0)" stroke="rgb(0,0,0)" stroke-width="1" opacity="0" d="M 398 213 L 406 213 L 406 234 L 398 234 L 398 213 Z " /><path fill="rgb(0,0,0)" stroke="rgb(0,0,0)" stroke-width="1" opacity="0" d="M 439.5 213 Q 446.5 211.5 446 214.5 L 447 215.5 L 447 232.5 Q 445.5 235.5 439.5 234 L 438 232.5 L 438 214.5 L 439.5 213 Z " /><path fill="rgb(115,178,78)" stroke="rgb(115,178,78)" stroke-width="1" opacity="1" d="M 33.5 71 L 35 71.5 L 32 73.5 L 29.5 77 L 31 74.5 L 33.5 71 Z " /><path fill="rgb(115,178,78)" stroke="rgb(115,178,78)" stroke-width="1" opacity="1" d="M 35.5 77 L 34.5 79 L 35.5 77 Z " /><path fill="rgb(115,178,78)" stroke="rgb(115,178,78)" stroke-width="1" opacity="1" d="M 28.5 78 L 26.5 81 L 28.5 78 Z " /><path fill="rgb(115,178,78)" stroke="rgb(115,178,78)" stroke-width="1" opacity="1" d="M 33.5 80 L 32.5 82 L 33.5 80 Z " /><path fill="rgb(115,178,78)" stroke="rgb(115,178,78)" stroke-width="1" opacity="1" d="M 25.5 82 L 24 84.5 Q 21.4 85.9 22 90.5 L 22.5 92 Q 20.3 91.3 21 87.5 L 25.5 82 Z " /><path fill="rgb(115,178,78)" stroke="rgb(115,178,78)" stroke-width="1" opacity="1" d="M 30.5 84 L 29.5 86 L 30.5 84 Z " /><path fill="rgb(115,178,78)" stroke="rgb(115,178,78)" stroke-width="1" opacity="1" d="M 381.5 88 L 383 88.5 L 381 89 L 379.5 92 L 380 90.5 L 381.5 88 Z " /><path fill="rgb(115,178,78)" stroke="rgb(115,178,78)" stroke-width="1" opacity="1" d="M 421.5 88 L 422 89.5 L 418.5 94 L 419 92.5 L 421.5 88 Z " /><path fill="rgb(115,178,78)" stroke="rgb(115,178,78)" stroke-width="1" opacity="1" d="M 462.5 88 L 464 88.5 L 461 90.5 L 459.5 93 L 460 91.5 L 462.5 88 Z " /><path fill="rgb(115,178,78)" stroke="rgb(115,178,78)" stroke-width="1" opacity="1" d="M 28.5 89 L 29.5 91 L 28.5 89 Z " /><path fill="rgb(115,178,78)" stroke="rgb(115,178,78)" stroke-width="1" opacity="1" d="M 24.5 92 L 26.5 95 L 24.5 92 Z " /><path fill="rgb(115,178,78)" stroke="rgb(115,178,78)" stroke-width="1" opacity="1" d="M 32.5 92 L 33.5 94 L 32.5 92 Z " /><path fill="rgb(115,178,78)" stroke="rgb(115,178,78)" stroke-width="1" opacity="1" d="M 378.5 93 L 377.5 95 L 378.5 93 Z " /><path fill="rgb(115,178,78)" stroke="rgb(115,178,78)" stroke-width="1" opacity="1" d="M 385.5 93 L 386.5 95 L 385.5 93 Z " /><path fill="rgb(115,178,78)" stroke="rgb(115,178,78)" stroke-width="1" opacity="1" d="M 426.5 94 L 427.5 96 L 426.5 94 Z " /><path fill="rgb(115,178,78)" stroke="rgb(115,178,78)" stroke-width="1" opacity="1" d="M 458.5 94 L 458 95.5 L 454.5 101 L 455 99.5 L 458.5 94 Z " /><path fill="rgb(115,178,78)" stroke="rgb(115,178,78)" stroke-width="1" opacity="1" d="M 28.5 95 L 30.5 98 L 28.5 95 Z " /><path fill="rgb(115,178,78)" stroke="rgb(115,178,78)" stroke-width="1" opacity="1" d="M 36.5 95 L 37.5 97 L 36.5 95 Z " /><path fill="rgb(115,178,78)" stroke="rgb(115,178,78)" stroke-width="1" opacity="1" d="M 417.5 95 L 417 96.5 L 413.5 102 L 414 100.5 L 417.5 95 Z " /><path fill="rgb(115,178,78)" stroke="rgb(115,178,78)" stroke-width="1" opacity="1" d="M 467.5 95 L 468.5 97 L 467.5 95 Z " /><path fill="rgb(115,178,78)" stroke="rgb(115,178,78)" stroke-width="1" opacity="1" d="M 376.5 96 L 376 97.5 L 374.5 100 L 375 98.5 L 376.5 96 Z " /><path fill="rgb(115,178,78)" stroke="rgb(115,178,78)" stroke-width="1" opacity="1" d="M 32.5 98 L 34.5 101 L 32.5 98 Z " /><path fill="rgb(115,178,78)" stroke="rgb(115,178,78)" stroke-width="1" opacity="1" d="M 40.5 98 L 41.5 100 L 40.5 98 Z " /><path fill="rgb(115,178,78)" stroke="rgb(115,178,78)" stroke-width="1" opacity="1" d="M 388.5 98 L 389.5 100 L 388.5 98 Z " /><path fill="rgb(115,178,78)" stroke="rgb(115,178,78)" stroke-width="1" opacity="1" d="M 36.5 101 L 38.5 104 L 36.5 101 Z " /><path fill="rgb(115,178,78)" stroke="rgb(115,178,78)" stroke-width="1" opacity="1" d="M 44.5 101 L 45.5 103 L 44.5 101 Z " /><path fill="rgb(115,178,78)" stroke="rgb(115,178,78)" stroke-width="1" opacity="1" d="M 373.5 101 L 372.5 103 L 373.5 101 Z " /><path fill="rgb(115,178,78)" stroke="rgb(115,178,78)" stroke-width="1" opacity="1" d="M 390.5 101 L 391.5 103 L 390.5 101 Z " /><path fill="rgb(115,178,78)" stroke="rgb(115,178,78)" stroke-width="1" opacity="1" d="M 431.5 102 L 432.5 104 L 431.5 102 Z " /><path fill="rgb(115,178,78)" stroke="rgb(115,178,78)" stroke-width="1" opacity="1" d="M 453.5 102 L 453 103.5 L 449.5 109 L 450 107.5 L 453.5 102 Z " /><path fill="rgb(115,178,78)" stroke="rgb(115,178,78)" stroke-width="1" opacity="1" d="M 412.5 103 L 412 104.5 L 408.5 110 L 409 108.5 L 412.5 103 Z " /><path fill="rgb(115,178,78)" stroke="rgb(115,178,78)" stroke-width="1" opacity="1" d="M 472.5 103 L 473.5 105 L 472.5 103 Z " /><path fill="rgb(115,178,78)" stroke="rgb(115,178,78)" stroke-width="1" opacity="1" d="M 40.5 104 L 42.5 107 L 40.5 104 Z " /><path fill="rgb(115,178,78)" stroke="rgb(115,178,78)" stroke-width="1" opacity="1" d="M 48.5 104 L 49.5 106 L 48.5 104 Z " /><path fill="rgb(115,178,78)" stroke="rgb(115,178,78)" stroke-width="1" opacity="1" d="M 371.5 104 L 371 105.5 L 369.5 108 L 370 106.5 L 371.5 104 Z " /><path fill="rgb(115,178,78)" stroke="rgb(115,178,78)" stroke-width="1" opacity="1" d="M 393.5 106 L 394.5 108 L 393.5 106 Z " /><path fill="rgb(115,178,78)" stroke="rgb(115,178,78)" stroke-width="1" opacity="1" d="M 474.5 106 L 475.5 108 L 474.5 106 Z " /><path fill="rgb(115,178,78)" stroke="rgb(115,178,78)" stroke-width="1" opacity="1" d="M 44.5 107 L 46.5 110 L 44.5 107 Z " /><path fill="rgb(115,178,78)" stroke="rgb(115,178,78)" stroke-width="1" opacity="1" d="M 52.5 107 L 54.5 110 L 52.5 107 Z " /><path fill="rgb(115,178,78)" stroke="rgb(115,178,78)" stroke-width="1" opacity="1" d="M 368.5 109 L 367.5 111 L 368.5 109 Z " /><path fill="rgb(115,178,78)" stroke="rgb(115,178,78)" stroke-width="1" opacity="1" d="M 395.5 109 L 396.5 111 L 395.5 109 Z " /><path fill="rgb(115,178,78)" stroke="rgb(115,178,78)" stroke-width="1" opacity="1" d="M 48.5 110 L 50.5 113 L 48.5 110 Z " /><path fill="rgb(115,178,78)" stroke="rgb(115,178,78)" stroke-width="1" opacity="1" d="M 56.5 110 L 58.5 113 L 56.5 110 Z " /><path fill="rgb(115,178,78)" stroke="rgb(115,178,78)" stroke-width="1" opacity="1" d="M 436.5 110 L 437.5 112 L 436.5 110 Z " /><path fill="rgb(115,178,78)" stroke="rgb(115,178,78)" stroke-width="1" opacity="1" d="M 448.5 110 L 448 111.5 L 447.5 113 L 447 111.5 L 448.5 110 Z " /><path fill="rgb(115,178,78)" stroke="rgb(115,178,78)" stroke-width="1" opacity="1" d="M 407.5 111 L 407 112.5 L 407 144.5 L 405.5 146 L 398 145.5 L 406 145 L 406 112.5 L 407.5 111 Z " /><path fill="rgb(115,178,78)" stroke="rgb(115,178,78)" stroke-width="1" opacity="1" d="M 477.5 111 L 478.5 113 L 477.5 111 Z " /><path fill="rgb(115,178,78)" stroke="rgb(115,178,78)" stroke-width="1" opacity="1" d="M 366.5 112 L 367 232.5 L 366 232.5 L 366.5 112 Z " /><path fill="rgb(115,178,78)" stroke="rgb(115,178,78)" stroke-width="1" opacity="1" d="M 52.5 113 L 54.5 116 L 52.5 113 Z " /><path fill="rgb(115,178,78)" stroke="rgb(115,178,78)" stroke-width="1" opacity="1" d="M 60.5 113 L 62.5 116 L 60.5 113 Z " /><path fill="rgb(115,178,78)" stroke="rgb(115,178,78)" stroke-width="1" opacity="1" d="M 56.5 116 L 58.5 119 L 56.5 116 Z " /><path fill="rgb(115,178,78)" stroke="rgb(115,178,78)" stroke-width="1" opacity="1" d="M 64.5 116 L 66.5 119 L 64.5 116 Z " /><path fill="rgb(115,178,78)" stroke="rgb(115,178,78)" stroke-width="1" opacity="1" d="M 60.5 119 L 62.5 122 L 60.5 119 Z " /><path fill="rgb(115,178,78)" stroke="rgb(115,178,78)" stroke-width="1" opacity="1" d="M 68.5 119 L 70.5 122 L 68.5 119 Z " /><path fill="rgb(115,178,78)" stroke="rgb(115,178,78)" stroke-width="1" opacity="1" d="M 64.5 122 L 66.5 125 L 64.5 122 Z " /><path fill="rgb(115,178,78)" stroke="rgb(115,178,78)" stroke-width="1" opacity="1" d="M 72.5 122 L 74.5 125 L 72.5 122 Z " /><path fill="rgb(115,178,78)" stroke="rgb(115,178,78)" stroke-width="1" opacity="1" d="M 68.5 125 L 70.5 128 L 68.5 125 Z " /><path fill="rgb(115,178,78)" stroke="rgb(115,178,78)" stroke-width="1" opacity="1" d="M 76.5 125 L 78.5 128 L 76.5 125 Z " /><path fill="rgb(115,178,78)" stroke="rgb(115,178,78)" stroke-width="1" opacity="1" d="M 72.5 128 L 74.5 131 L 72.5 128 Z " /><path fill="rgb(115,178,78)" stroke="rgb(115,178,78)" stroke-width="1" opacity="1" d="M 80.5 128 L 82.5 131 L 80.5 128 Z " /><path fill="rgb(115,178,78)" stroke="rgb(115,178,78)" stroke-width="1" opacity="1" d="M 76.5 131 L 78.5 134 L 76.5 131 Z " /><path fill="rgb(115,178,78)" stroke="rgb(115,178,78)" stroke-width="1" opacity="1" d="M 84.5 131 L 86.5 134 L 84.5 131 Z " /><path fill="rgb(115,178,78)" stroke="rgb(115,178,78)" stroke-width="1" opacity="1" d="M 80.5 134 L 82.5 137 L 80.5 134 Z " /><path fill="rgb(115,178,78)" stroke="rgb(115,178,78)" stroke-width="1" opacity="1" d="M 88.5 134 L 90.5 137 L 88.5 134 Z " /><path fill="rgb(115,178,78)" stroke="rgb(115,178,78)" stroke-width="1" opacity="1" d="M 84.5 137 L 86.5 140 L 84.5 137 Z " /><path fill="rgb(115,178,78)" stroke="rgb(115,178,78)" stroke-width="1" opacity="1" d="M 92.5 137 L 94.5 140 L 92.5 137 Z " /><path fill="rgb(115,178,78)" stroke="rgb(115,178,78)" stroke-width="1" opacity="1" d="M 88.5 140 L 90.5 143 L 88.5 140 Z " /><path fill="rgb(115,178,78)" stroke="rgb(115,178,78)" stroke-width="1" opacity="1" d="M 96.5 140 L 98.5 143 L 96.5 140 Z " /><path fill="rgb(115,178,78)" stroke="rgb(115,178,78)" stroke-width="1" opacity="1" d="M 92.5 143 L 94.5 146 L 92.5 143 Z " /><path fill="rgb(115,178,78)" stroke="rgb(115,178,78)" stroke-width="1" opacity="1" d="M 100.5 143 L 102.5 146 L 100.5 143 Z " /><path fill="rgb(115,178,78)" stroke="rgb(115,178,78)" stroke-width="1" opacity="1" d="M 438.5 144 Q 440 146.5 445.5 145 L 447 144.5 Q 445.5 147.5 439.5 146 L 438.5 144 Z " /><path fill="rgb(115,178,78)" stroke="rgb(115,178,78)" stroke-width="1" opacity="1" d="M 96.5 146 L 98.5 149 L 96.5 146 Z " /><path fill="rgb(115,178,78)" stroke="rgb(115,178,78)" stroke-width="1" opacity="1" d="M 104.5 146 L 106.5 149 L 104.5 146 Z " /><path fill="rgb(115,178,78)" stroke="rgb(115,178,78)" stroke-width="1" opacity="1" d="M 100.5 149 L 102.5 152 L 100.5 149 Z " /><path fill="rgb(115,178,78)" stroke="rgb(115,178,78)" stroke-width="1" opacity="1" d="M 108.5 149 L 110.5 152 L 108.5 149 Z " /><path fill="rgb(115,178,78)" stroke="rgb(115,178,78)" stroke-width="1" opacity="1" d="M 52.5 152 L 67 152.5 L 52 153 L 51.5 157 L 51 153.5 L 52.5 152 Z " /><path fill="rgb(115,178,78)" stroke="rgb(115,178,78)" stroke-width="1" opacity="1" d="M 104.5 152 L 106.5 155 L 104.5 152 Z " /><path fill="rgb(115,178,78)" stroke="rgb(115,178,78)" stroke-width="1" opacity="1" d="M 112.5 152 L 114.5 155 L 112.5 152 Z " /><path fill="rgb(115,178,78)" stroke="rgb(115,178,78)" stroke-width="1" opacity="1" d="M 108.5 155 L 110.5 158 L 108.5 155 Z " /><path fill="rgb(115,178,78)" stroke="rgb(115,178,78)" stroke-width="1" opacity="1" d="M 116.5 155 L 118.5 158 L 116.5 155 Z " /><path fill="rgb(115,178,78)" stroke="rgb(115,178,78)" stroke-width="1" opacity="1" d="M 112.5 158 L 114.5 161 L 112.5 158 Z " /><path fill="rgb(115,178,78)" stroke="rgb(115,178,78)" stroke-width="1" opacity="1" d="M 120.5 158 L 122.5 161 L 120.5 158 Z " /><path fill="rgb(115,178,78)" stroke="rgb(115,178,78)" stroke-width="1" opacity="1" d="M 157.5 158 L 173 158.5 L 157.5 159 L 157.5 158 Z " /><path fill="rgb(115,178,78)" stroke="rgb(115,178,78)" stroke-width="1" opacity="1" d="M 399.5 158 L 405 158.5 L 398.5 160 L 399.5 158 Z " /><path fill="rgb(115,178,78)" stroke="rgb(115,178,78)" stroke-width="1" opacity="1" d="M 439.5 158 Q 445.5 156.5 447 159.5 L 446.5 161 L 446 159 L 439.5 159 L 438.5 160 L 439.5 158 Z " /><path fill="rgb(115,178,78)" stroke="rgb(115,178,78)" stroke-width="1" opacity="1" d="M 50.5 159 L 51 167.5 L 50 167.5 L 50.5 159 Z " /><path fill="rgb(115,178,78)" stroke="rgb(115,178,78)" stroke-width="1" opacity="1" d="M 155.5 159 L 155 160.5 L 152.5 164 L 154 161.5 L 155.5 159 Z " /><path fill="rgb(115,178,78)" stroke="rgb(115,178,78)" stroke-width="1" opacity="1" d="M 174.5 160 L 176.5 163 L 174.5 160 Z " /><path fill="rgb(115,178,78)" stroke="rgb(115,178,78)" stroke-width="1" opacity="1" d="M 406.5 160 L 407 197.5 Q 405.8 201.3 399.5 200 L 398.5 198 Q 399.7 200.3 404.5 199 L 406 197.5 L 406.5 160 Z " /><path fill="rgb(115,178,78)" stroke="rgb(115,178,78)" stroke-width="1" opacity="1" d="M 116.5 161 L 118.5 164 L 116.5 161 Z " /><path fill="rgb(115,178,78)" stroke="rgb(115,178,78)" stroke-width="1" opacity="1" d="M 124.5 161 L 126.5 164 L 124.5 161 Z " /><path fill="rgb(115,178,78)" stroke="rgb(115,178,78)" stroke-width="1" opacity="1" d="M 120.5 164 L 122.5 167 L 120.5 164 Z " /><path fill="rgb(115,178,78)" stroke="rgb(115,178,78)" stroke-width="1" opacity="1" d="M 128.5 164 L 130.5 167 L 128.5 164 Z " /><path fill="rgb(115,178,78)" stroke="rgb(115,178,78)" stroke-width="1" opacity="1" d="M 150.5 164 L 148 167.5 L 146.5 175 L 146 169.5 L 150.5 164 Z " /><path fill="rgb(115,178,78)" stroke="rgb(115,178,78)" stroke-width="1" opacity="1" d="M 193.5 164 L 195.5 167 L 193.5 164 Z " /><path fill="rgb(115,178,78)" stroke="rgb(115,178,78)" stroke-width="1" opacity="1" d="M 124.5 167 L 126.5 170 L 124.5 167 Z " /><path fill="rgb(115,178,78)" stroke="rgb(115,178,78)" stroke-width="1" opacity="1" d="M 132.5 167 L 134.5 170 L 132.5 167 Z " /><path fill="rgb(115,178,78)" stroke="rgb(115,178,78)" stroke-width="1" opacity="1" d="M 51.5 170 L 52 173.5 L 51 173.5 L 51.5 170 Z " /><path fill="rgb(115,178,78)" stroke="rgb(115,178,78)" stroke-width="1" opacity="1" d="M 128.5 170 L 130.5 173 L 128.5 170 Z " /><path fill="rgb(115,178,78)" stroke="rgb(115,178,78)" stroke-width="1" opacity="1" d="M 136.5 170 L 138.5 173 L 136.5 170 Z " /><path fill="rgb(115,178,78)" stroke="rgb(115,178,78)" stroke-width="1" opacity="1" d="M 197.5 170 L 198 184 L 200 184.5 L 198.5 185 L 197 183.5 L 197.5 170 Z " /><path fill="rgb(115,178,78)" stroke="rgb(115,178,78)" stroke-width="1" opacity="1" d="M 115.5 172 L 118 173.5 L 113.5 174 L 113.5 173 L 115.5 172 Z " /><path fill="rgb(115,178,78)" stroke="rgb(115,178,78)" stroke-width="1" opacity="1" d="M 132.5 173 L 134.5 176 L 132.5 173 Z " /><path fill="rgb(115,178,78)" stroke="rgb(115,178,78)" stroke-width="1" opacity="1" d="M 140.5 173 L 142.5 176 L 140.5 173 Z " /><path fill="rgb(115,178,78)" stroke="rgb(115,178,78)" stroke-width="1" opacity="1" d="M 109.5 174 L 112 174.5 L 109.5 175 L 109.5 174 Z " /><path fill="rgb(115,178,78)" stroke="rgb(115,178,78)" stroke-width="1" opacity="1" d="M 52.5 175 L 54 179.5 L 53 179.5 L 52.5 175 Z " /><path fill="rgb(115,178,78)" stroke="rgb(115,178,78)" stroke-width="1" opacity="1" d="M 103.5 176 L 105 176.5 L 102.5 178 L 103.5 176 Z " /><path fill="rgb(115,178,78)" stroke="rgb(115,178,78)" stroke-width="1" opacity="1" d="M 136.5 176 Q 140.8 177.8 138 179.5 L 139 181.5 L 137 180.5 L 138 178.5 L 136.5 176 Z " /><path fill="rgb(115,178,78)" stroke="rgb(115,178,78)" stroke-width="1" opacity="1" d="M 144.5 176 L 147 177.5 L 145.5 178 L 144.5 176 Z " /><path fill="rgb(115,178,78)" stroke="rgb(115,178,78)" stroke-width="1" opacity="1" d="M 100.5 178 L 98.5 181 L 100.5 178 Z " /><path fill="rgb(115,178,78)" stroke="rgb(115,178,78)" stroke-width="1" opacity="1" d="M 115.5 178 L 120 178.5 L 115.5 179 L 115.5 178 Z " /><path fill="rgb(115,178,78)" stroke="rgb(115,178,78)" stroke-width="1" opacity="1" d="M 107.5 180 L 109 180.5 L 104.5 183 L 105.5 181 L 107.5 180 Z " /><path fill="rgb(115,178,78)" stroke="rgb(115,178,78)" stroke-width="1" opacity="1" d="M 54.5 181 L 56 183.5 L 54 182.5 L 54.5 181 Z " /><path fill="rgb(115,178,78)" stroke="rgb(115,178,78)" stroke-width="1" opacity="1" d="M 96.5 181 L 93.5 185 L 96.5 181 Z " /><path fill="rgb(115,178,78)" stroke="rgb(115,178,78)" stroke-width="1" opacity="1" d="M 102.5 183 L 101.5 185 L 102.5 183 Z " /><path fill="rgb(115,178,78)" stroke="rgb(115,178,78)" stroke-width="1" opacity="1" d="M 133.5 183 L 135.5 186 L 133.5 183 Z " /><path fill="rgb(115,178,78)" stroke="rgb(115,178,78)" stroke-width="1" opacity="1" d="M 141.5 184 L 144.5 188 L 141.5 184 Z " /><path fill="rgb(115,178,78)" stroke="rgb(115,178,78)" stroke-width="1" opacity="1" d="M 305.5 184 L 308 190.5 L 306.5 198 L 305.5 184 Z " /><path fill="rgb(115,178,78)" stroke="rgb(115,178,78)" stroke-width="1" opacity="1" d="M 99.5 185 L 97.5 188 L 99.5 185 Z " /><path fill="rgb(115,178,78)" stroke="rgb(115,178,78)" stroke-width="1" opacity="1" d="M 204.5 185 L 213 185.5 L 204.5 186 L 204.5 185 Z " /><path fill="rgb(115,178,78)" stroke="rgb(115,178,78)" stroke-width="1" opacity="1" d="M 255.5 185 L 264 185.5 L 255.5 186 L 255.5 185 Z " /><path fill="rgb(115,178,78)" stroke="rgb(115,178,78)" stroke-width="1" opacity="1" d="M 92.5 186 L 91 188.5 L 89.5 191 L 90 189.5 L 92.5 186 Z " /><path fill="rgb(115,178,78)" stroke="rgb(115,178,78)" stroke-width="1" opacity="1" d="M 219.5 186 L 223 186.5 L 219.5 187 L 219.5 186 Z " /><path fill="rgb(115,178,78)" stroke="rgb(115,178,78)" stroke-width="1" opacity="1" d="M 57.5 187 L 60.5 191 L 57.5 187 Z " /><path fill="rgb(115,178,78)" stroke="rgb(115,178,78)" stroke-width="1" opacity="1" d="M 268.5 187 L 273 189.5 L 271.5 189 Q 267.8 188.8 268.5 187 Z " /><path fill="rgb(115,178,78)" stroke="rgb(115,178,78)" stroke-width="1" opacity="1" d="M 138.5 188 L 140.5 191 L 138.5 188 Z " /><path fill="rgb(115,178,78)" stroke="rgb(115,178,78)" stroke-width="1" opacity="1" d="M 247.5 188 L 246.5 190 L 240 195.5 L 237.5 201 L 237 199.5 L 245.5 189 L 247.5 188 Z " /><path fill="rgb(115,178,78)" stroke="rgb(115,178,78)" stroke-width="1" opacity="1" d="M 328.5 188 L 330 188.5 L 326 191.5 Q 328.3 192.8 325.5 194 L 324 192.5 L 328.5 188 Z " /><path fill="rgb(115,178,78)" stroke="rgb(115,178,78)" stroke-width="1" opacity="1" d="M 145.5 189 L 148 193.5 L 147 193.5 L 145.5 189 Z " /><path fill="rgb(115,178,78)" stroke="rgb(115,178,78)" stroke-width="1" opacity="1" d="M 230.5 189 L 236 192.5 L 234.5 195 L 235 193.5 L 233.5 191 Q 229.8 190.7 230.5 189 Z " /><path fill="rgb(115,178,78)" stroke="rgb(115,178,78)" stroke-width="1" opacity="1" d="M 95.5 190 L 95 191.5 L 92.5 197 L 92 195.5 L 95.5 190 Z " /><path fill="rgb(115,178,78)" stroke="rgb(115,178,78)" stroke-width="1" opacity="1" d="M 274.5 190 L 276.5 193 L 274.5 190 Z " /><path fill="rgb(115,178,78)" stroke="rgb(115,178,78)" stroke-width="1" opacity="1" d="M 115.5 193 L 121 193.5 L 115.5 194 L 115.5 193 Z " /><path fill="rgb(115,178,78)" stroke="rgb(115,178,78)" stroke-width="1" opacity="1" d="M 64.5 194 L 67.5 198 L 64.5 194 Z " /><path fill="rgb(115,178,78)" stroke="rgb(115,178,78)" stroke-width="1" opacity="1" d="M 112.5 194 L 114 194.5 L 111.5 196 L 112.5 194 Z " /><path fill="rgb(115,178,78)" stroke="rgb(115,178,78)" stroke-width="1" opacity="1" d="M 124.5 195 L 125.5 197 L 124.5 195 Z " /><path fill="rgb(115,178,78)" stroke="rgb(115,178,78)" stroke-width="1" opacity="1" d="M 278.5 195 L 279.5 197 L 278.5 195 Z " /><path fill="rgb(115,178,78)" stroke="rgb(115,178,78)" stroke-width="1" opacity="1" d="M 324.5 195 L 323.5 197 L 324.5 195 Z " /><path fill="rgb(115,178,78)" stroke="rgb(115,178,78)" stroke-width="1" opacity="1" d="M 109.5 196 L 108.5 198 L 109.5 196 Z " /><path fill="rgb(115,178,78)" stroke="rgb(115,178,78)" stroke-width="1" opacity="1" d="M 320.5 196 L 317 200.5 L 313.5 206 L 314 204.5 L 320.5 196 Z " /><path fill="rgb(115,178,78)" stroke="rgb(115,178,78)" stroke-width="1" opacity="1" d="M 86.5 197 L 87 199.5 L 86 199.5 L 86.5 197 Z " /><path fill="rgb(115,178,78)" stroke="rgb(115,178,78)" stroke-width="1" opacity="1" d="M 446.5 197 L 447 198.5 Q 445.5 201.5 439.5 200 L 438.5 198 L 439.5 199 L 446 199 L 446.5 197 Z " /><path fill="rgb(115,178,78)" stroke="rgb(115,178,78)" stroke-width="1" opacity="1" d="M 69.5 198 L 78 202.5 L 76.5 203 L 70.5 200 L 69.5 198 Z " /><path fill="rgb(115,178,78)" stroke="rgb(115,178,78)" stroke-width="1" opacity="1" d="M 91.5 198 L 92 201.5 L 91 201.5 L 91.5 198 Z " /><path fill="rgb(115,178,78)" stroke="rgb(115,178,78)" stroke-width="1" opacity="1" d="M 127.5 198 L 128.5 200 L 127.5 198 Z " /><path fill="rgb(115,178,78)" stroke="rgb(115,178,78)" stroke-width="1" opacity="1" d="M 149.5 198 L 150 202.5 L 149 202.5 L 149.5 198 Z " /><path fill="rgb(115,178,78)" stroke="rgb(115,178,78)" stroke-width="1" opacity="1" d="M 256.5 198 L 263 198.5 L 256.5 199 L 256.5 198 Z " /><path fill="rgb(115,178,78)" stroke="rgb(115,178,78)" stroke-width="1" opacity="1" d="M 322.5 198 L 321.5 200 L 322.5 198 Z " /><path fill="rgb(115,178,78)" stroke="rgb(115,178,78)" stroke-width="1" opacity="1" d="M 107.5 199 L 107 200.5 L 106.5 202 L 106 200.5 L 107.5 199 Z " /><path fill="rgb(115,178,78)" stroke="rgb(115,178,78)" stroke-width="1" opacity="1" d="M 144.5 199 L 145 204.5 L 144 204.5 L 144.5 199 Z " /><path fill="rgb(115,178,78)" stroke="rgb(115,178,78)" stroke-width="1" opacity="1" d="M 264.5 199 L 268 201.5 L 266.5 201 L 264.5 199 Z " /><path fill="rgb(115,178,78)" stroke="rgb(115,178,78)" stroke-width="1" opacity="1" d="M 309.5 199 L 310 201.5 L 309 201.5 L 309.5 199 Z " /><path fill="rgb(115,178,78)" stroke="rgb(115,178,78)" stroke-width="1" opacity="1" d="M 252.5 200 L 250.5 203 L 252.5 200 Z " /><path fill="rgb(115,178,78)" stroke="rgb(115,178,78)" stroke-width="1" opacity="1" d="M 307.5 201 L 308 215.5 L 307 215.5 L 307.5 201 Z " /><path fill="rgb(115,178,78)" stroke="rgb(115,178,78)" stroke-width="1" opacity="1" d="M 236.5 202 L 237 204.5 L 236 204.5 L 236.5 202 Z " /><path fill="rgb(115,178,78)" stroke="rgb(115,178,78)" stroke-width="1" opacity="1" d="M 79.5 203 L 84.5 205 L 85.5 203 L 86 206 L 79.5 204 L 79.5 203 Z " /><path fill="rgb(115,178,78)" stroke="rgb(115,178,78)" stroke-width="1" opacity="1" d="M 90.5 203 L 91 208.5 L 90 208.5 L 90.5 203 Z " /><path fill="rgb(115,178,78)" stroke="rgb(115,178,78)" stroke-width="1" opacity="1" d="M 105.5 203 L 106 207.5 L 105 207.5 L 105.5 203 Z " /><path fill="rgb(115,178,78)" stroke="rgb(115,178,78)" stroke-width="1" opacity="1" d="M 268.5 203 L 270 205.5 L 269 205.5 L 268.5 203 Z " /><path fill="rgb(115,178,78)" stroke="rgb(115,178,78)" stroke-width="1" opacity="1" d="M 282.5 203 L 283 205.5 L 282 205.5 L 282.5 203 Z " /><path fill="rgb(115,178,78)" stroke="rgb(115,178,78)" stroke-width="1" opacity="1" d="M 230.5 204 L 231 213.5 L 230 213.5 L 230.5 204 Z " /><path fill="rgb(115,178,78)" stroke="rgb(115,178,78)" stroke-width="1" opacity="1" d="M 331.5 205 L 333 205.5 L 330.5 207 L 331.5 205 Z " /><path fill="rgb(115,178,78)" stroke="rgb(115,178,78)" stroke-width="1" opacity="1" d="M 235.5 206 L 236 212.5 L 235 212.5 L 235.5 206 Z " /><path fill="rgb(115,178,78)" stroke="rgb(115,178,78)" stroke-width="1" opacity="1" d="M 248.5 206 L 249 211.5 L 248 211.5 L 248.5 206 Z " /><path fill="rgb(115,178,78)" stroke="rgb(115,178,78)" stroke-width="1" opacity="1" d="M 144.5 207 L 145 211.5 L 144 211.5 L 144.5 207 Z " /><path fill="rgb(115,178,78)" stroke="rgb(115,178,78)" stroke-width="1" opacity="1" d="M 270.5 207 L 271 210.5 L 270 210.5 L 270.5 207 Z " /><path fill="rgb(115,178,78)" stroke="rgb(115,178,78)" stroke-width="1" opacity="1" d="M 310.5 207 L 313 207.5 L 310.5 208 L 310.5 207 Z " /><path fill="rgb(115,178,78)" stroke="rgb(115,178,78)" stroke-width="1" opacity="1" d="M 328.5 207 L 320 216.5 L 316.5 222 L 317 220.5 Q 320.7 211.7 328.5 207 Z " /><path fill="rgb(115,178,78)" stroke="rgb(115,178,78)" stroke-width="1" opacity="1" d="M 129.5 208 L 130 210.5 L 128 211.5 L 129.5 208 Z " /><path fill="rgb(115,178,78)" stroke="rgb(115,178,78)" stroke-width="1" opacity="1" d="M 149.5 209 L 150 213.5 L 145 223.5 L 233.5 224 L 233 222.5 L 233.5 221 L 235 225 L 144.5 225 L 144 223.5 Q 148.7 218.2 149.5 209 Z " /><path fill="rgb(115,178,78)" stroke="rgb(115,178,78)" stroke-width="1" opacity="1" d="M 298 209 L 300 209.5 L 298 210.5 L 298 209 Z " /><path fill="rgb(115,178,78)" stroke="rgb(115,178,78)" stroke-width="1" opacity="1" d="M 91.5 210 L 92 212.5 L 91 212.5 L 91.5 210 Z " /><path fill="rgb(115,178,78)" stroke="rgb(115,178,78)" stroke-width="1" opacity="1" d="M 328.5 210 L 326.5 213 L 328.5 210 Z " /><path fill="rgb(115,178,78)" stroke="rgb(115,178,78)" stroke-width="1" opacity="1" d="M 107.5 212 Q 110 216.5 116 217.5 L 113.5 218 L 107.5 212 Z " /><path fill="rgb(115,178,78)" stroke="rgb(115,178,78)" stroke-width="1" opacity="1" d="M 269.5 212 L 270 213.5 L 268 214.5 L 269.5 212 Z " /><path fill="rgb(115,178,78)" stroke="rgb(115,178,78)" stroke-width="1" opacity="1" d="M 282.5 212 L 283 214.5 L 282 214.5 L 282.5 212 Z " /><path fill="rgb(115,178,78)" stroke="rgb(115,178,78)" stroke-width="1" opacity="1" d="M 301.5 212 L 302.5 214 L 301.5 212 Z " /><path fill="rgb(115,178,78)" stroke="rgb(115,178,78)" stroke-width="1" opacity="1" d="M 399.5 212 L 405 212.5 L 399.5 213 L 399.5 212 Z " /><path fill="rgb(115,178,78)" stroke="rgb(115,178,78)" stroke-width="1" opacity="1" d="M 439.5 212 Q 445.5 210.5 447 213.5 L 446.5 215 L 446 213 L 439.5 213 L 438.5 214 L 439.5 212 Z " /><path fill="rgb(115,178,78)" stroke="rgb(115,178,78)" stroke-width="1" opacity="1" d="M 127.5 213 L 125.5 216 L 127.5 213 Z " /><path fill="rgb(115,178,78)" stroke="rgb(115,178,78)" stroke-width="1" opacity="1" d="M 143.5 213 L 144 215.5 L 140.5 221 L 141 219.5 L 143.5 213 Z " /><path fill="rgb(115,178,78)" stroke="rgb(115,178,78)" stroke-width="1" opacity="1" d="M 92.5 214 L 94 217.5 L 92 216.5 L 92.5 214 Z " /><path fill="rgb(115,178,78)" stroke="rgb(115,178,78)" stroke-width="1" opacity="1" d="M 236.5 214 L 238 218.5 L 237 218.5 L 236.5 214 Z " /><path fill="rgb(115,178,78)" stroke="rgb(115,178,78)" stroke-width="1" opacity="1" d="M 325.5 214 L 324.5 216 L 325.5 214 Z " /><path fill="rgb(115,178,78)" stroke="rgb(115,178,78)" stroke-width="1" opacity="1" d="M 406.5 214 L 407 233.5 Q 405.3 236.8 398.5 235 L 398.5 234 L 406 234 L 406.5 214 Z " /><path fill="rgb(115,178,78)" stroke="rgb(115,178,78)" stroke-width="1" opacity="1" d="M 250.5 215 L 255 218.5 L 253.5 219 L 250.5 215 Z " /><path fill="rgb(115,178,78)" stroke="rgb(115,178,78)" stroke-width="1" opacity="1" d="M 267.5 216 L 266.5 218 L 267.5 216 Z " /><path fill="rgb(115,178,78)" stroke="rgb(115,178,78)" stroke-width="1" opacity="1" d="M 304.5 217 L 307 217.5 L 304.5 218 L 304.5 217 Z " /><path fill="rgb(115,178,78)" stroke="rgb(115,178,78)" stroke-width="1" opacity="1" d="M 301.5 218 L 302 220.5 L 301 220.5 L 301.5 218 Z " /><path fill="rgb(115,178,78)" stroke="rgb(115,178,78)" stroke-width="1" opacity="1" d="M 256.5 219 L 263 219.5 L 256.5 220 L 256.5 219 Z " /><path fill="rgb(115,178,78)" stroke="rgb(115,178,78)" stroke-width="1" opacity="1" d="M 238.5 220 L 246.5 229 L 253 231.5 L 250.5 232 Q 243 229 239 222.5 L 238.5 220 Z " /><path fill="rgb(115,178,78)" stroke="rgb(115,178,78)" stroke-width="1" opacity="1" d="M 95.5 221 L 101.5 228 L 95.5 221 Z " /><path fill="rgb(115,178,78)" stroke="rgb(115,178,78)" stroke-width="1" opacity="1" d="M 327.5 221 L 329 221.5 L 326 223.5 L 327.5 221 Z " /><path fill="rgb(115,178,78)" stroke="rgb(115,178,78)" stroke-width="1" opacity="1" d="M 302.5 222 L 303 224.5 L 302 224.5 L 302.5 222 Z " /><path fill="rgb(115,178,78)" stroke="rgb(115,178,78)" stroke-width="1" opacity="1" d="M 138.5 223 L 135.5 227 L 138.5 223 Z " /><path fill="rgb(115,178,78)" stroke="rgb(115,178,78)" stroke-width="1" opacity="1" d="M 278.5 223 L 274.5 228 L 278.5 223 Z " /><path fill="rgb(115,178,78)" stroke="rgb(115,178,78)" stroke-width="1" opacity="1" d="M 312.5 223 L 313.5 226 L 315 225.5 L 312 227 L 312.5 223 Z " /><path fill="rgb(115,178,78)" stroke="rgb(115,178,78)" stroke-width="1" opacity="1" d="M 324.5 223 L 321.5 227 L 320 226.5 L 324.5 223 Z " /><path fill="rgb(115,178,78)" stroke="rgb(115,178,78)" stroke-width="1" opacity="1" d="M 303.5 226 L 304 229.5 L 303 229.5 L 303.5 226 Z " /><path fill="rgb(115,178,78)" stroke="rgb(115,178,78)" stroke-width="1" opacity="1" d="M 324.5 226 L 322.5 229 L 324.5 226 Z " /><path fill="rgb(115,178,78)" stroke="rgb(115,178,78)" stroke-width="1" opacity="1" d="M 103.5 228 L 108 230.5 L 106.5 231 L 103.5 228 Z " /><path fill="rgb(115,178,78)" stroke="rgb(115,178,78)" stroke-width="1" opacity="1" d="M 109.5 231 L 117 232.5 L 112.5 233 L 109.5 232 L 109.5 231 Z " /><path fill="rgb(115,178,78)" stroke="rgb(115,178,78)" stroke-width="1" opacity="1" d="M 124.5 231 L 127 231.5 Q 124.3 233.8 118.5 233 L 118.5 232 Q 123.3 233.3 124.5 231 Z " /><path fill="rgb(115,178,78)" stroke="rgb(115,178,78)" stroke-width="1" opacity="1" d="M 304.5 231 L 305 233.5 L 303.5 235 L 27 235 L 27.5 239 L 491 239 L 491 235 L 479.5 235 L 479.5 234 L 490.5 234 L 492 235.5 Q 492.5 240 491.5 240 L 27.5 240 Q 25.3 239.3 26 235.5 L 27.5 234 L 259 233.5 L 254 232.5 L 258.5 232 L 260.5 232 L 265 232.5 L 260 233.5 L 304 234 L 304.5 231 Z " /><path fill="rgb(115,178,78)" stroke="rgb(115,178,78)" stroke-width="1" opacity="1" d="M 320.5 232 L 321 234 L 366 234.5 L 321.5 235 L 320.5 232 Z " /><path fill="rgb(115,178,78)" stroke="rgb(115,178,78)" stroke-width="1" opacity="1" d="M 438.5 233 Q 440 235.5 445.5 234 L 447 233.5 Q 445.5 236.5 439.5 235 L 438.5 233 Z " /><path fill="rgb(106,174,67)" stroke="rgb(106,174,67)" stroke-width="1" opacity="1" d="M 33.5 72 L 37 73.5 L 37 75.5 L 29 85.5 L 28 89.5 L 142.5 176 L 147 178 Q 145 167.3 151.5 164 L 155 161.5 L 156.5 159 L 173.5 159 L 174 160.5 L 176.5 163 L 189.5 163 L 196 167.5 L 197 169.5 L 197 183.5 L 198.5 185 L 223.5 187 L 235 192.5 L 230 204.5 L 230 213.5 L 234 223.5 L 145.5 224 L 146 222.5 L 150 213.5 L 151 205.5 L 148 192.5 L 138 179.5 Q 140.8 177.8 136.5 176 L 22 90.5 L 22 87.5 L 33.5 72 Z " /><path fill="rgb(106,174,67)" stroke="rgb(106,174,67)" stroke-width="1" opacity="1" d="M 422.5 88 L 438 112.5 L 438 144.5 L 439.5 146 Q 445.5 147.5 447 144.5 L 447 113.5 L 462.5 89 Q 464.8 88.3 464 90.5 L 479 113.5 L 479 235 L 491 235 L 491 239 L 27.5 239 L 27 235 L 303.5 235 L 305 233.5 Q 303.5 220.5 299 210.5 L 301 211.5 L 304 218 Q 307.7 219.5 307 216.5 L 308 215.5 L 308 201.5 L 307 200.5 L 307 191.5 L 308 191.5 L 310 208 Q 313.7 209.5 313 206.5 L 323.5 193 L 326.5 191 L 325 193.5 Q 314.3 206.7 312 227 L 315 225.5 Q 319.9 213.9 329.5 207 L 331 207.5 Q 322.1 214.4 320 227 L 325.5 223 L 326 224.5 Q 321.4 227.4 320 233.5 L 321.5 235 L 366 235 L 367 232.5 L 367 111.5 L 381 89 L 384 90.5 L 398 113.5 L 398 146 L 405.5 146 L 407 144.5 L 407 112.5 L 422.5 88 Z M 400 158 L 398 160 L 398 199 Q 399 201 405 200 L 407 198 L 407 161 Q 406 157 400 158 Z M 440 158 L 438 160 L 438 199 Q 440 202 446 200 L 447 199 L 447 160 Q 445 157 440 158 Z M 400 212 L 398 214 L 398 235 L 406 235 L 407 234 L 407 215 Q 406 211 400 212 Z M 440 212 L 438 214 L 438 234 Q 440 237 446 235 L 447 234 L 447 214 Q 445 211 440 212 Z " /><path fill="rgb(106,174,67)" stroke="rgb(106,174,67)" stroke-width="1" opacity="1" d="M 52 153 L 68.5 153 L 115 172.5 L 103.5 176 L 93 184.5 L 87 194.5 L 86 202.5 L 84.5 205 Q 69.8 201.2 61 191.5 Q 54.5 185 52 174.5 L 51 157.5 L 52 153 Z " /><path fill="rgb(106,174,67)" stroke="rgb(106,174,67)" stroke-width="1" opacity="1" d="M 112.5 179 L 123.5 179 Q 132.4 181.6 138 187.5 L 143 195.5 L 145 206.5 Q 142.8 207.7 144 212.5 L 140 221.5 L 133.5 228 L 127.5 231 L 117.5 233 L 108.5 231 L 102.5 228 L 95 220.5 L 91 209.5 L 91 202.5 L 96 189.5 L 100.5 185 L 112.5 179 Z M 116 193 L 110 196 L 105 204 Q 104 210 107 213 Q 110 218 118 219 L 126 216 Q 130 213 131 207 L 129 200 L 121 193 L 116 193 Z " /><path fill="rgb(106,174,67)" stroke="rgb(106,174,67)" stroke-width="1" opacity="1" d="M 253.5 186 Q 271.5 184.5 278 194.5 Q 283.1 200.4 283 211.5 Q 281 223.5 272.5 229 L 259.5 233 L 246.5 229 L 240 222.5 L 236 213.5 L 236 205.5 Q 238.1 195.1 245.5 190 L 253.5 186 Z M 257 198 L 253 200 L 248 207 Q 247 213 250 216 L 257 220 Q 264 221 267 218 L 271 211 Q 271 204 268 202 Q 265 197 257 198 Z " /></svg>