<svg width="491" height="491" viewBox="0 0 491 491" fill="none" xmlns="http://www.w3.org/2000/svg">
<circle cx="245.5" cy="245.5" r="245.5" fill="#246103"/>
<path fill-rule="evenodd" clip-rule="evenodd" d="M57 172L99.8977 317.455H137.682L162.398 236.205H163.534L188.25 317.455H218.151L215.76 316.923L212.933 315.51L209.399 311.975L207.514 306.792V303.494L209.87 297.368L211.99 295.247L217.645 292.42H222.828C225.624 293.237 227.902 294.572 229.661 296.425L232.017 300.195L232.96 305.378C232.268 305.755 232.111 306.698 232.488 308.206L230.603 312.447L227.541 315.51L224.713 316.923L222.057 317.455H224.966H226.034H280.932C282.406 317.455 283.861 317.426 285.297 317.368L280.788 315.981L277.725 312.918L275.84 308.677V304.907C276.5 301.64 277.992 299.206 280.317 297.603L284.086 295.719C289.741 295.247 293.589 296.582 295.631 299.724C297.233 301.577 298.019 304.248 297.987 307.735C297.359 311.504 295.71 314.253 293.039 315.981L289.31 317.128C295.84 316.606 301.943 315.456 307.619 313.679C307.104 311.358 306.407 309.219 305.527 307.263L306.469 307.735L307.883 310.797C309.045 311.269 309.516 311.033 309.296 310.091L309.768 309.619V303.022L309.296 302.551V298.31H309.768L310.71 306.085C311.872 306.557 312.344 306.321 312.124 305.378L317.071 299.017L318.485 298.075L317.778 299.253C314.945 302.748 313.049 307.035 312.091 312.114C313.011 311.757 313.92 311.382 314.816 310.989C316.176 308.864 317.87 307.072 319.899 305.614L320.606 305.85C319.163 306.968 318.004 308.326 317.13 309.921C317.881 309.557 318.622 309.18 319.355 308.79C326.494 304.956 332.565 300.033 337.569 294.024V260.613L344.166 250.011L345.58 250.717L352.177 261.555V276.87H355.711L356.418 276.163V261.084L363.722 249.539L371.026 261.084V276.163L371.732 276.87C373.617 277.341 374.795 277.106 375.267 276.163V261.555L382.57 250.011C383.293 249.791 383.529 250.026 383.277 250.717L390.345 261.555V317.455H449.261V285.636H390.455V172H350.966V222.883C349.477 216.669 347.297 210.953 344.426 205.736C338.508 194.846 330.08 186.512 319.142 180.736C308.252 174.912 295.326 172 280.364 172H268.932H224.966H224.898L205.011 261.773H203.875L180.295 172H145.636L122.057 261.489H120.92L101.034 172H57ZM352.177 317.455H356.418V309.384C356.104 308.127 355.004 307.656 353.119 307.97L352.177 308.913V317.455ZM371.026 317.455H375.267V308.913C374.638 307.97 373.539 307.656 371.968 307.97L371.026 308.913V317.455ZM279.511 283.932H264.455V205.523H278.375C285.951 205.523 292.343 206.683 297.551 209.003C302.807 211.323 306.784 215.324 309.483 221.006C312.229 226.688 313.602 234.595 313.602 244.727C313.602 254.86 312.253 262.767 309.554 268.449C306.902 274.131 303.02 278.132 297.906 280.452C292.84 282.772 286.708 283.932 279.511 283.932ZM182.068 242.707L180.419 242L175 249.304V250.717L228.954 291.006C230.305 291.572 230.541 292.122 229.661 292.656L234.373 298.781L235.787 304.907L235.316 308.677L233.431 312.918L233.195 313.625L274.898 313.389L273.013 308.677V304.436L275.369 298.781L269.95 296.19L258.17 295.247L257.463 294.541V287.943L256.991 287.001L253.929 284.881H247.803L246.625 283.703L246.389 282.996H238.378L237.672 284.174L236.022 285.352C233.98 286.388 233.274 288.587 233.902 291.949L231.781 291.006L177.827 250.246L178.299 248.361L182.068 243.649V242.707ZM353.119 282.525L352.177 283.467V301.844C352.491 302.473 353.591 302.63 355.475 302.316L356.418 301.373V283.938C356.104 282.682 355.004 282.21 353.119 282.525ZM371.968 282.525L371.026 283.467V301.844C371.654 302.787 372.91 302.944 374.795 302.316L375.267 301.844V283.467C374.638 282.525 373.539 282.21 371.968 282.525ZM196.912 280.168H189.136L188.665 282.289L189.136 290.3C189.922 293.598 191.335 296.268 193.377 298.31C196.142 301.357 199.833 303.478 204.451 304.672L205.158 303.494L205.629 299.724L208.456 295.012L213.404 291.006L218.823 289.357L196.912 280.168ZM219.294 299.017L216.467 300.431L214.111 304.2C213.797 306.085 214.111 307.499 215.053 308.441C215.996 310.012 217.724 310.954 220.237 311.269L224.006 309.855C225.263 308.913 226.048 307.499 226.363 305.614L225.42 302.316L221.65 299.017H219.294ZM283.851 302.316L285.736 301.373C288.249 301.059 289.977 301.687 290.919 303.258C291.861 303.886 292.333 305.3 292.333 307.499L290.448 310.797C289.505 311.74 287.935 312.054 285.736 311.74L282.437 309.855C281.495 308.913 281.18 307.499 281.495 305.614L283.851 302.316Z" fill="white"/>
</svg>
